<svg width="48px" height="48px" xmlns="http://www.w3.org/2000/svg" viewBox="157.190625 -98.19999999999999 185.61875 346.4" style="background: rgba(0, 0, 0, 0);" preserveAspectRatio="xMidYMid"><defs><linearGradient id="editing-shiny-gradient" x1="0.04322727117869957" x2="0.9567727288213004" y1="0.2966316784620999" y2="0.7033683215379001" gradientUnits="objectBoundingBox"><stop offset="0.0" stop-color="#ffb200"></stop><stop offset="0.5" stop-color="#e10057"></stop><stop offset="1.0" stop-color="#5A1A80"></stop></linearGradient><linearGradient id="editing-shiny-gradient2" x1="0" x2="0" y1="0" y2="1"><stop offset="0.2" stop-color="#fff" stop-opacity="0.8"></stop><stop offset="0.8" stop-color="#fff" stop-opacity="0"></stop></linearGradient><filter id="editing-shiny2" x="-100%" y="-100%" width="300%" height="300%"><feMorphology operator="erode" radius="2"></feMorphology></filter><filter id="editing-shiny" x="-100%" y="-100%" width="300%" height="300%"><feFlood flood-color="#fff" result="flood"></feFlood><feConvolveMatrix in="SourceGraphic" result="conv" order="8,8" divisor="1" kernelMatrix="0 0 0 0 0 0 0 0 0 0 0 1 1 0 0 0 0 0 0 1 1 0 0 0 0 0 1 0 0 1 0 0 0 0 1 0 0 1 0 0 0 1 0 0 0 0 1 0 0 1 1 0 0 1 1 0 0 0 0 1 1 0 0 0 "></feConvolveMatrix><feOffset dx="0" dy="4" in="conv" result="offset"></feOffset><feComposite operator="in" in="flood" in2="offset" result="comp"></feComposite><feGaussianBlur in="offset" stdDeviation="3" result="shadow"></feGaussianBlur><feColorMatrix in="shadow" type="matrix" values="0.7 0 0 0 0  0 0.7 0 0 0  0 0 0.7 0 0  0 0 0 0.3 0" result="dark-shadow"></feColorMatrix><feOffset dx="0" dy="4" in="dark-shadow" result="offset-shadow"></feOffset><feOffset dx="0" dy="2" in="conv" result="offset-2"></feOffset><feComposite operator="out" in="offset" in2="offset-2" result="edge-diff"></feComposite><feGaussianBlur in="edge-diff" stdDeviation="1" result="edge-blur"></feGaussianBlur><feColorMatrix in="edge-blur" result="edge-shadow" type="matrix" values="0 0 0 0 0  0 0 0 0 0  0 0 0 0 0  0 0 0 0.5 0"></feColorMatrix><feComposite operator="in" in="edge-shadow" in2="offset" result="edge-shadow-in"></feComposite><feOffset dx="0" dy="1" in="edge-shadow-in" result="edge-shadow-final"></feOffset><feMerge result="out"><feMergeNode in="offset-shadow"></feMergeNode><feMergeNode in="comp"></feMergeNode><feMergeNode in="edge-shadow-final"></feMergeNode><feMergeNode in="SourceGraphic"></feMergeNode></feMerge></filter></defs><g filter="url(#editing-shiny)"><g transform="translate(189.1150119304657, 104.85000038146973)"><path d="M73.06-3.94L73.06 0L53.55 0L53.55-3.03L53.79-3.03L53.79-3.03Q56.83-3.03 57.93-4.71L57.93-4.71L57.93-4.71Q59.04-6.40 59.04-10.17L59.04-10.17L59.04-10.17Q59.04-11.73 58.96-12.63L58.96-12.63L56.99-45.10L56.83-44.69L38.38 0.33L34.93 0.33L28.78-13.37L28.78-13.37Q24.19-23.29 20.99-30.55L20.99-30.55L20.99-30.55Q17.79-37.80 14.92-45.26L14.92-45.26L14.92-44.53L14.92-44.53Q14.92-43.30 14.84-42.56L14.84-42.56L14.84-42.56Q14.19-20.75 14.02-10.41L14.02-10.41L14.02-10.41Q14.02-9.27 13.94-8.69L13.94-8.69L13.94-8.69Q13.94-5.99 13.69-3.61L13.69-3.61L19.84-3.94L19.84 0L3.03 0L3.03-3.03L3.28-3.03L3.28-3.03Q6.56-2.95 7.54-4.80L7.54-4.80L7.54-4.80Q8.53-6.64 8.69-10.41L8.69-10.41L10.50-53.79L4.59-53.55L4.59-57.40L18.20-57.40L38.29-11.81L38.29-11.81Q40.92-18.04 41.98-20.91L41.98-20.91L41.98-20.91Q44.28-26.81 49.04-37.72L49.04-37.72L49.04-37.72Q54.69-50.84 57.24-57.40L57.24-57.40L70.44-57.40L70.44-54.37L70.19-54.37L70.19-54.37Q67.40-54.53 66.05-52.93L66.05-52.93L66.05-52.93Q64.70-51.33 64.70-47.31L64.70-47.31L64.78-45.59L66.91-8.61L66.91-8.61Q67.08-6.81 67.08-3.69L67.08-3.69L73.06-3.94ZM87.49-45.51L87.49-45.51Q87.49-42.31 89.34-40.02L89.34-40.02L89.34-40.02Q91.18-37.72 93.93-36.20L93.93-36.20L93.93-36.20Q96.68-34.69 101.43-32.64L101.43-32.64L101.43-32.64Q107.09-30.18 110.50-28.17L110.50-28.17L110.50-28.17Q113.90-26.16 116.32-22.84L116.32-22.84L116.32-22.84Q118.74-19.52 118.74-14.60L118.74-14.60L118.74-14.60Q118.74-10.09 116.40-6.52L116.40-6.52L116.40-6.52Q114.06-2.95 109.59-0.90L109.59-0.90L109.59-0.90Q105.12 1.15 98.97 1.15L98.97 1.15L98.97 1.15Q95.45 1.15 91.68 0.21L91.68 0.21L91.68 0.21Q87.90-0.74 85.03-2.38L85.03-2.38L85.36 0.49L79.95 0.49L79.46-17.30L83.80-17.30L83.80-17.30Q84.13-10.17 88.40-6.40L88.40-6.40L88.40-6.40Q92.66-2.62 99.30-2.62L99.30-2.62L99.30-2.62Q104.14-2.62 107.34-5.29L107.34-5.29L107.34-5.29Q110.54-7.95 110.54-12.71L110.54-12.71L110.54-12.71Q110.54-16.15 108.65-18.57L108.65-18.57L108.65-18.57Q106.76-20.99 103.98-22.59L103.98-22.59L103.98-22.59Q101.19-24.19 96.35-26.32L96.35-26.32L96.35-26.32Q90.94-28.70 87.58-30.67L87.58-30.67L87.58-30.67Q84.21-32.64 81.92-35.88L81.92-35.88L81.92-35.88Q79.62-39.11 79.62-43.95L79.62-43.95L79.62-43.95Q79.62-47.23 81.18-50.55L81.18-50.55L81.18-50.55Q82.74-53.87 86.59-56.21L86.59-56.21L86.59-56.21Q90.45-58.55 96.84-58.55L96.84-58.55L96.84-58.55Q100.20-58.55 103.81-57.73L103.81-57.73L103.81-57.73Q107.42-56.91 110.45-55.02L110.45-55.02L110.21-57.89L115.54-57.89L115.54-39.52L111.44-39.52L111.44-39.52Q111.11-46.08 107.50-50.51L107.50-50.51L107.50-50.51Q103.89-54.94 97.42-54.94L97.42-54.94L97.42-54.94Q92.74-54.94 90.12-52.28L90.12-52.28L90.12-52.28Q87.49-49.61 87.49-45.51L87.49-45.51Z" fill="url(#editing-shiny-gradient)"></path></g></g><g filter="url(#editing-shiny2)"><g transform="translate(189.11502718925476, 104.85000801086426)"><path d="M73.06-3.94L73.06 0L53.55 0L53.55-3.03L53.79-3.03L53.79-3.03Q56.83-3.03 57.93-4.71L57.93-4.71L57.93-4.71Q59.04-6.40 59.04-10.17L59.04-10.17L59.04-10.17Q59.04-11.73 58.96-12.63L58.96-12.63L56.99-45.10L56.83-44.69L38.38 0.33L34.93 0.33L28.78-13.37L28.78-13.37Q24.19-23.29 20.99-30.55L20.99-30.55L20.99-30.55Q17.79-37.80 14.92-45.26L14.92-45.26L14.92-44.53L14.92-44.53Q14.92-43.30 14.84-42.56L14.84-42.56L14.84-42.56Q14.19-20.75 14.02-10.41L14.02-10.41L14.02-10.41Q14.02-9.27 13.94-8.69L13.94-8.69L13.94-8.69Q13.94-5.99 13.69-3.61L13.69-3.61L19.84-3.94L19.84 0L3.03 0L3.03-3.03L3.28-3.03L3.28-3.03Q6.56-2.95 7.54-4.80L7.54-4.80L7.54-4.80Q8.53-6.64 8.69-10.41L8.69-10.41L10.50-53.79L4.59-53.55L4.59-57.40L18.20-57.40L38.29-11.81L38.29-11.81Q40.92-18.04 41.98-20.91L41.98-20.91L41.98-20.91Q44.28-26.81 49.04-37.72L49.04-37.72L49.04-37.72Q54.69-50.84 57.24-57.40L57.24-57.40L70.44-57.40L70.44-54.37L70.19-54.37L70.19-54.37Q67.40-54.53 66.05-52.93L66.05-52.93L66.05-52.93Q64.70-51.33 64.70-47.31L64.70-47.31L64.78-45.59L66.91-8.61L66.91-8.61Q67.08-6.81 67.08-3.69L67.08-3.69L73.06-3.94ZM87.49-45.51L87.49-45.51Q87.49-42.31 89.34-40.02L89.34-40.02L89.34-40.02Q91.18-37.72 93.93-36.20L93.93-36.20L93.93-36.20Q96.68-34.69 101.43-32.64L101.43-32.64L101.43-32.64Q107.09-30.18 110.50-28.17L110.50-28.17L110.50-28.17Q113.90-26.16 116.32-22.84L116.32-22.84L116.32-22.84Q118.74-19.52 118.74-14.60L118.74-14.60L118.74-14.60Q118.74-10.09 116.40-6.52L116.40-6.52L116.40-6.52Q114.06-2.95 109.59-0.90L109.59-0.90L109.59-0.90Q105.12 1.15 98.97 1.15L98.97 1.15L98.97 1.15Q95.45 1.15 91.68 0.21L91.68 0.21L91.68 0.21Q87.90-0.74 85.03-2.38L85.03-2.38L85.36 0.49L79.95 0.49L79.46-17.30L83.80-17.30L83.80-17.30Q84.13-10.17 88.40-6.40L88.40-6.40L88.40-6.40Q92.66-2.62 99.30-2.62L99.30-2.62L99.30-2.62Q104.14-2.62 107.34-5.29L107.34-5.29L107.34-5.29Q110.54-7.95 110.54-12.71L110.54-12.71L110.54-12.71Q110.54-16.15 108.65-18.57L108.65-18.57L108.65-18.57Q106.76-20.99 103.98-22.59L103.98-22.59L103.98-22.59Q101.19-24.19 96.35-26.32L96.35-26.32L96.35-26.32Q90.94-28.70 87.58-30.67L87.58-30.67L87.58-30.67Q84.21-32.64 81.92-35.88L81.92-35.88L81.92-35.88Q79.62-39.11 79.62-43.95L79.62-43.95L79.62-43.95Q79.62-47.23 81.18-50.55L81.18-50.55L81.18-50.55Q82.74-53.87 86.59-56.21L86.59-56.21L86.59-56.21Q90.45-58.55 96.84-58.55L96.84-58.55L96.84-58.55Q100.20-58.55 103.81-57.73L103.81-57.73L103.81-57.73Q107.42-56.91 110.45-55.02L110.45-55.02L110.21-57.89L115.54-57.89L115.54-39.52L111.44-39.52L111.44-39.52Q111.11-46.08 107.50-50.51L107.50-50.51L107.50-50.51Q103.89-54.94 97.42-54.94L97.42-54.94L97.42-54.94Q92.74-54.94 90.12-52.28L90.12-52.28L90.12-52.28Q87.49-49.61 87.49-45.51L87.49-45.51Z" fill="url(#editing-shiny-gradient2)"></path></g></g><style>text {
  font-size: 64px;
  font-family: Arial Black;
  dominant-baseline: central;
  text-anchor: middle;
}</style></svg>