<?xml version="1.0" encoding="utf-8"?><svg xmlns="http://www.w3.org/2000/svg" width="70" height="46" preserveAspectRatio="xMidYMid" xmlns:xlink="http://www.w3.org/1999/xlink" style="margin-right:-2px;display:block;animation-play-state:paused" ><style type="text/css" style="animation-play-state:paused" >text {
    text-anchor: middle; font-size: 30px; opacity: 0;
  }</style>


<g style="transform-origin:35px 23px;transform:matrix(0.375, 0, 0, 0.375, 0, 0);animation-play-state:paused" ><g transform="translate(35,23)" style="transform:matrix(1, 0, 0, 1, 35, 23);animation-play-state:paused" ><g transform="translate(0,0)" style="transform:matrix(1, 0, 0, 1, 0, 0);animation-play-state:paused" ><g class="path" style="transform-origin:-25.68px 9.0472px;transform:matrix(0.987608, 0, 0, 0.987608, 0, 0);animation-timing-function:linear;animation-play-state:paused;animation-name:breath-300622c4-907c-4c99-9a6f-0c8ba9da6f68;animation-iteration-count:infinite;animation-fill-mode:forwards;animation-duration:100s;animation-delay:-33s" ><path d="M102.24 6.56L103.28 7.92L103.28 7.92Q100.24 10.96 95.40 10.96L95.40 10.96L95.40 10.96Q90.56 10.96 87.68 7.80L87.68 7.80L87.68 7.80Q84.80 4.64 84.80-0.52L84.80-0.52L84.80-0.52Q84.80-5.68 86.64-12.40L86.64-12.40L90.24-24.24L90.24-24.24Q83.52-15.76 77.92-8L77.92-8L77.92-8Q66.88 7.28 62.96 12.48L62.96 12.48L61.52 12.08L58.40-26.64L52-14.96L52-14.96Q42.88 2.24 36.76 7.72L36.76 7.72L36.76 7.72Q30.64 13.20 20.48 13.20L20.48 13.20L20.48 13.20Q11.84 13.20 6.16 7.04L6.16 7.04L6.16 7.04Q1.68 2 1.68-5.04L1.68-5.04L1.68-5.04Q1.68-6.32 1.84-7.68L1.84-7.68L3.44-7.52L3.44-7.52Q3.28-6.24 3.28-5.04L3.28-5.04L3.28-5.04Q3.28 1.44 7.36 5.92L7.36 5.92L7.36 5.92Q12.56 11.60 20.48 11.60L20.48 11.60L20.48 11.60Q30 11.60 35.84 6.28L35.84 6.28L35.84 6.28Q41.68 0.96 50.56-15.68L50.56-15.68L64.96-41.84L64.96-41.84Q56.48-42 48.52-44.52L48.52-44.52L48.52-44.52Q40.56-47.04 34.28-47.04L34.28-47.04L34.28-47.04Q28-47.04 23.76-42.64L23.76-42.64L23.76-42.64Q19.52-38.24 19.52-31.28L19.52-31.28L17.92-31.28L17.92-31.28Q17.92-38.96 22.60-43.80L22.60-43.80L22.60-43.80Q27.28-48.64 34.72-48.64L34.72-48.64L34.72-48.64Q40.72-48.64 49-46.04L49-46.04L49-46.04Q57.28-43.44 66.88-43.44L66.88-43.44L70.24-0.24L71.84-2.48L71.84-2.48Q88.72-25.68 97.92-35.64L97.92-35.64L97.92-35.64Q107.12-45.60 112.80-45.60L112.80-45.60L112.80-44L112.80-44Q110.32-44 106.48-41.28L106.48-41.28L106.48-41.28Q105.92-39.52 102.72-29.08L102.72-29.08L102.72-29.08Q99.52-18.64 97-10.84L97-10.84L97-10.84Q94.48-3.04 94.48 1.92L94.48 1.92L94.48 1.92Q94.48 6.88 96.24 9.28L96.24 9.28L96.24 9.28Q97.92 9.28 99.40 8.60L99.40 8.60L99.40 8.60Q100.88 7.92 101.60 7.20L101.60 7.20L102.24 6.56" fill="#51cacc" stroke="none" stroke-width="none" transform="translate(-82.92001342773438,26.767198753356933)" style="transform:matrix(1, 0, 0, 1, -82.92, 26.7672);fill:rgb(81, 202, 204);animation-play-state:paused" ></path></g>
<g class="path" style="transform-origin:57.52px 7.8072px;transform:matrix(0.91, 0, 0, 0.91, 0, 0);animation-timing-function:linear;animation-play-state:paused;animation-name:breath-300622c4-907c-4c99-9a6f-0c8ba9da6f68;animation-iteration-count:infinite;animation-fill-mode:forwards;animation-duration:100s" ><path d="M131.60 15.52L131.60 15.52L131.60 15.52Q140 15.52 144.68 12.08L144.68 12.08L144.68 12.08Q149.36 8.64 149.36 2.96L149.36 2.96L149.36 2.96Q149.36-1.12 147.32-4.24L147.32-4.24L147.32-4.24Q145.28-7.36 142.24-9.40L142.24-9.40L142.24-9.40Q139.20-11.44 136.04-13.44L136.04-13.44L136.04-13.44Q132.88-15.44 130.16-18.48L130.16-18.48L130.16-18.48Q127.44-21.52 126.56-25.36L126.56-25.36L126.56-25.36Q119.28-27.52 116.96-34.40L116.96-34.40L116.96-34.40Q116.08-37.04 116.08-39.92L116.08-39.92L116.08-39.92Q116.08-42.80 116.96-45.92L116.96-45.92L116.96-45.92Q118.80-52.08 122.96-55.20L122.96-55.20L123.84-53.92L123.84-53.92Q120.08-51.20 118.40-45.44L118.40-45.44L118.40-45.44Q117.60-42.56 117.60-39.92L117.60-39.92L117.60-39.92Q117.60-37.28 118.40-34.88L118.40-34.88L118.40-34.88Q120.32-29.04 126.32-27.04L126.32-27.04L126.32-27.04Q126.16-27.92 126.16-29.76L126.16-29.76L126.16-29.76Q126.16-40.24 133.76-46.72L133.76-46.72L133.76-46.72Q141.36-53.20 152.32-53.20L152.32-53.20L152.32-53.20Q159.52-53.20 163.84-49.28L163.84-49.28L163.84-49.28Q167.52-45.84 167.52-40.84L167.52-40.84L167.52-40.84Q167.52-35.84 164.16-32.20L164.16-32.20L164.16-32.20Q160.80-28.56 155.12-28.56L155.12-28.56L155.12-28.56Q152-28.56 150-29.76L150-29.76L150-29.76Q145.92-26.64 140.32-25.28L140.32-25.28L140.32-25.28Q141.92-23.76 147.80-19.68L147.80-19.68L147.80-19.68Q153.68-15.60 156.60-11.88L156.60-11.88L156.60-11.88Q159.52-8.16 159.52-3.20L159.52-3.20L159.52-3.20Q159.52 5.92 152.44 11.60L152.44 11.60L152.44 11.60Q145.36 17.28 134.52 17.28L134.52 17.28L134.52 17.28Q123.68 17.28 118.16 12.48L118.16 12.48L118.16 12.48Q113.36 8.40 113.36 2.52L113.36 2.52L113.36 2.52Q113.36-3.36 117.16-7.56L117.16-7.56L117.16-7.56Q120.96-11.76 126.64-11.76L126.64-11.76L126.64-11.76Q132.32-11.76 135.04-9.24L135.04-9.24L135.04-9.24Q137.76-6.72 137.76-3.12L137.76-3.12L137.76-3.12Q137.76 0.48 135.56 3.28L135.56 3.28L135.56 3.28Q133.36 6.08 129.84 6.08L129.84 6.08L129.84 6.08Q126.32 6.08 124.24 3.84L124.24 3.84L124.24 3.84Q122.32 1.92 122.08-0.96L122.08-0.96L122.08-0.96Q122-1.76 122.08-1.92L122.08-1.92L123.60-1.84L123.60-1.84Q123.52 0.96 125.36 2.80L125.36 2.80L125.36 2.80Q126.88 4.48 129.80 4.48L129.80 4.48L129.80 4.48Q132.72 4.48 134.48 2.20L134.48 2.20L134.48 2.20Q136.24-0.08 136.24-3.08L136.24-3.08L136.24-3.08Q136.24-6.08 134.16-7.92L134.16-7.92L134.16-7.92Q131.84-10.24 126.72-10.24L126.72-10.24L126.72-10.24Q121.60-10.24 118.24-6.52L118.24-6.52L118.24-6.52Q114.88-2.80 114.88 2.44L114.88 2.44L114.88 2.44Q114.88 7.68 119.20 11.36L119.20 11.36L119.20 11.36Q121.76 13.60 124.44 14.56L124.44 14.56L124.44 14.56Q127.12 15.52 131.60 15.52zM145.20-39.52L145.20-39.52L145.20-39.52Q145.20-43.04 147-45.36L147-45.36L147-45.36Q148.80-47.68 151.92-47.68L151.92-47.68L151.92-47.68Q157.28-47.68 157.28-41.80L157.28-41.80L157.28-41.80Q157.28-35.92 151.44-30.72L151.44-30.72L151.44-30.72Q153.20-29.92 155.12-29.92L155.12-29.92L155.12-29.92Q160.08-29.92 163.04-33.16L163.04-33.16L163.04-33.16Q166-36.40 166-40.76L166-40.76L166-40.76Q166-45.12 162.80-48.16L162.80-48.16L162.80-48.16Q158.88-51.68 152.48-51.68L152.48-51.68L152.48-51.68Q146.08-51.68 141.60-48.56L141.60-48.56L141.60-48.56Q134.64-43.60 134.64-35.76L134.64-35.76L134.64-35.76Q134.64-29.28 138.96-26.32L138.96-26.32L138.96-26.32Q144.32-27.52 148.88-30.64L148.88-30.64L148.88-30.64Q145.20-33.92 145.20-39.52zM151.84-46.24L151.84-46.24L151.84-46.24Q149.44-46.24 148.12-44.40L148.12-44.40L148.12-44.40Q146.80-42.56 146.80-39.52L146.80-39.52L146.80-39.52Q146.80-34.32 150.08-31.60L150.08-31.60L150.08-31.60Q152.48-33.28 154.08-36.16L154.08-36.16L154.08-36.16Q155.68-39.04 155.68-41.84L155.68-41.84L155.68-41.84Q155.68-46.24 151.84-46.24" fill="#51cacc" stroke="none" stroke-width="none" transform="translate(-82.92001342773438,26.767198753356933)" style="transform:matrix(1, 0, 0, 1, -82.92, 26.7672);fill:rgb(157, 248, 113);animation-play-state:paused" ></path></g></g></g></g></svg>