<?xml version="1.0" ?><!-- Uploaded to: SVG Repo, www.svgrepo.com, Generator: SVG Repo Mixer Tools -->
<svg width="800px" height="800px" viewBox="0 0 64 64" data-name="Lovely Valentine's day" id="Lovely_Valentine_s_day" xmlns="http://www.w3.org/2000/svg"><defs><style>.cls-1{fill:#e29e9a;}.cls-2{fill:#f6e3a6;}.cls-3{fill:#623905;}.cls-4{fill:#fff0cc;}.cls-5{fill:#268484;}.cls-6{fill:#842835;}</style></defs><title/><circle class="cls-1" cx="32" cy="32" r="28"/><rect class="cls-2" height="22" rx="2" width="26" x="13" y="29"/><path class="cls-3" d="M37,52H15a3,3,0,0,1-3-3V31a3,3,0,0,1,3-3H37a3,3,0,0,1,3,3V49A3,3,0,0,1,37,52ZM15,30a1,1,0,0,0-1,1V49a1,1,0,0,0,1,1H37a1,1,0,0,0,1-1V31a1,1,0,0,0-1-1Z"/><rect class="cls-4" height="18" rx="2" transform="translate(66 14) rotate(90)" width="14" x="19" y="31"/><rect class="cls-5" height="10" width="4" x="39" y="35"/><path class="cls-3" d="M44,46H38V34h6Zm-4-2h2V36H40Z"/><path class="cls-2" d="M48.671,50.041,43,45V35l5.772-4.489A2,2,0,0,1,52,32.089V48.546A2,2,0,0,1,48.671,50.041Z"/><path class="cls-3" d="M49.989,51.552a2.97,2.97,0,0,1-1.982-.764L42,45.449V34.511l6.158-4.789A3,3,0,0,1,53,32.089V48.546a2.968,2.968,0,0,1-1.771,2.737A3.017,3.017,0,0,1,49.989,51.552Zm-.654-2.258A1,1,0,0,0,51,48.546V32.089a1,1,0,0,0-1.613-.789L44,35.489v9.062Z"/><circle class="cls-5" cx="20" cy="21" r="8"/><path class="cls-3" d="M20,30a9,9,0,1,1,9-9A9.01,9.01,0,0,1,20,30Zm0-16a7,7,0,1,0,7,7A7.009,7.009,0,0,0,20,14Z"/><circle class="cls-5" cx="20" cy="21" r="5"/><path class="cls-3" d="M20,27a6,6,0,1,1,6-6A6.006,6.006,0,0,1,20,27Zm0-10a4,4,0,1,0,4,4A4,4,0,0,0,20,17Z"/><circle class="cls-5" cx="34" cy="23" r="6"/><path class="cls-3" d="M34,30a7,7,0,1,1,7-7A7.009,7.009,0,0,1,34,30Zm0-12a5,5,0,1,0,5,5A5.006,5.006,0,0,0,34,18Z"/><circle class="cls-5" cx="34" cy="23" r="3"/><path class="cls-3" d="M34,27a4,4,0,1,1,4-4A4,4,0,0,1,34,27Zm0-6a2,2,0,1,0,2,2A2,2,0,0,0,34,21Z"/><path class="cls-6" d="M21.081,38.609a2.569,2.569,0,0,0,.766,1.844L23.692,42.3l1.9,1.9a1.3,1.3,0,0,0,1.846,0l1.9-1.9,1.743-1.744a2.708,2.708,0,0,0,.387-3.454,2.612,2.612,0,0,0-3.975-.336l-.975.974-.861-.861a2.737,2.737,0,0,0-3.3-.5A2.573,2.573,0,0,0,21.081,38.609Z"/><path class="cls-3" d="M26.512,45.583a2.287,2.287,0,0,1-1.632-.677L21.14,41.16a3.6,3.6,0,0,1,.7-5.642,3.706,3.706,0,0,1,4.519.652l.155.154.267-.267a3.611,3.611,0,0,1,5.494.459,3.718,3.718,0,0,1-.491,4.746l-3.638,3.644A2.288,2.288,0,0,1,26.512,45.583Zm-2.875-8.556a1.509,1.509,0,0,0-.773.206,1.6,1.6,0,0,0-.316,2.507L26.3,43.494a.266.266,0,0,0,.431,0l3.64-3.646a1.7,1.7,0,0,0,.282-2.164,1.607,1.607,0,0,0-1.187-.679,1.644,1.644,0,0,0-1.27.466l-.974.974a1,1,0,0,1-1.414,0l-.862-.861A1.869,1.869,0,0,0,23.637,37.027Z"/></svg>