<?xml version="1.0" encoding="iso-8859-1"?>
<!-- Uploaded to: SVG Repo, www.svgrepo.com, Generator: SVG Repo Mixer Tools -->
<!DOCTYPE svg PUBLIC "-//W3C//DTD SVG 1.1//EN" "http://www.w3.org/Graphics/SVG/1.1/DTD/svg11.dtd">
<svg fill="#000000" version="1.1" id="Capa_1" xmlns="http://www.w3.org/2000/svg" xmlns:xlink="http://www.w3.org/1999/xlink" 
	 viewBox="0 0 433.362 433.362" xml:space="preserve">
<g>
	<path d="M254.139,125.413V72.49l-19.025-19.025h-36.872L179.216,72.49v52.923H0v254.485h433.362V125.413H254.139z M193.216,78.289
		l10.824-10.824h25.274l10.824,10.824v68.896h-46.923V78.289z M419.362,365.898H14V139.413h165.216v21.771h74.923v-21.771h165.224
		V365.898z"/>
	<path d="M27.458,352.068h147.678V178.343H27.458V352.068z M68.187,245.113c0-18.26,14.851-33.116,33.104-33.116
		c18.261,0,33.116,14.856,33.116,33.116c0,14.202-9.03,26.804-22.472,31.359l0.802,13.479c23.408,4.938,40.873,24.692,43.398,48.118
		H46.459c2.525-23.425,19.99-43.179,43.398-48.118l0.802-13.479C77.217,271.917,68.187,259.314,68.187,245.113z M161.136,192.343
		V309.39c-6.925-11.948-17.33-21.752-29.961-27.839c10.693-8.768,17.232-22.024,17.232-36.438c0-25.98-21.137-47.116-47.116-47.116
		c-25.974,0-47.104,21.136-47.104,47.116c0,14.414,6.539,27.67,17.232,36.438c-12.63,6.087-23.036,15.891-29.961,27.839V192.343
		H161.136z"/>
	<rect x="231.846" y="199.185" width="158.839" height="14"/>
	<rect x="231.846" y="245.929" width="158.839" height="14"/>
</g>
</svg>